<?xml version="1.0" encoding="UTF-8"?><svg xmlns="http://www.w3.org/2000/svg" viewBox="0 0 408.9 400.59"><defs><style>.d{fill:#fff;}</style></defs><g id="a"/><g id="b"><g id="c"><path class="d" d="M0,191.5c.78-5.77,1.47-11.56,2.35-17.31,5.93-38.78,21.66-73.13,47.24-102.82C79.83,36.26,117.67,13.33,163.11,4.39c64.52-12.69,122.71,2.15,173.23,44.32,35.89,29.95,58.29,68.52,68.16,114.19,5.13,23.73,5.65,47.7,2.2,71.76-4.72,32.94-16.71,62.98-36.02,90.03-19.75,27.67-44.84,49.25-75.31,64.4-7.35,3.65-15.09,6.51-22.65,9.73-.12,.05-.25,.1-.37,.15-11.13,4.17-17.47-.14-17.39-11.92,.1-16.9,.36-33.8,.38-50.69,0-10.02-.92-19.98-5.62-29.06-2.04-3.95-4.84-7.52-7.41-11.44,7-1.23,14.18-2.21,21.24-3.79,16.42-3.66,31.65-9.95,44.19-21.6,12.18-11.31,19.43-25.42,23.07-41.47,4.12-18.19,5.67-36.47,1.4-54.88-2.72-11.73-8.06-22.2-15.89-31.3-2.13-2.48-2.26-4.49-1.35-7.43,5.05-16.43,3.01-32.55-2.86-48.34-.38-1.03-2.67-1.86-4.1-1.9-10.39-.3-19.86,3.27-28.92,7.78-6.88,3.42-13.46,7.47-20.06,11.43-2.3,1.38-4.31,1.88-7.06,1.19-31.65-8.01-63.36-7.97-95.01-.03-2.75,.69-4.8,.29-7.06-1.19-11.59-7.58-23.58-14.46-37.19-17.72-4.21-1.01-8.65-1.22-13-1.37-1.07-.04-2.8,1.37-3.21,2.49-5.98,16.26-7.51,32.74-2.2,49.54,.38,1.2,0,3.19-.81,4.14-16.61,19.34-21.12,42.05-18.82,66.69,1.26,13.55,3.86,26.73,9.71,39.19,8.89,18.92,23.51,31.46,42.61,39.24,11.65,4.74,23.85,7.14,36.24,8.8,.79,.11,1.59,.17,2.36,.35,.35,.08,.66,.39,1.19,.73-6.89,7.03-10.47,15.57-12.11,25.08-.18,1.04-1.37,2.31-2.39,2.73-20.91,8.63-42.5,6.28-56.16-15.44-6.09-9.69-13.33-18.08-24.65-21.5-4.07-1.23-8.62-1.61-12.87-1.3-4.66,.34-5.49,3.27-2.34,6.76,1.41,1.56,3.06,3.01,4.84,4.13,11.2,7.03,18.24,17.35,22.88,29.35,9.73,25.12,32.9,32.86,54.54,31.05,4.86-.41,9.69-1.18,15.4-1.9,0,8.22,.02,16.31-.01,24.39-.02,3.85,.25,7.75-.3,11.53-1.09,7.44-6.56,10.84-13.93,8.64-5.07-1.51-10.06-3.42-14.9-5.57-55.95-24.86-94.09-66.23-114.26-124.01-5.4-15.46-8.47-31.49-9.78-47.84-.1-1.3-.46-2.58-.7-3.87v-27.15Z"/></g></g></svg>