<?xml version="1.0" encoding="UTF-8"?><svg xmlns="http://www.w3.org/2000/svg" viewBox="0 0 306.89 306.71"><defs><style>.d{fill:#fff;}</style></defs><g id="a"/><g id="b"><g id="c"><g><path class="d" d="M108.83,102.11v204.61h63.38v-4.62c0-31.2-.09-62.4,.06-93.59,.04-7.59,.36-15.24,1.44-22.74,2.3-15.95,9.05-30.75,31.68-32.78,17.87-1.61,31.35,5.05,34.91,23.65,1.98,10.32,2.57,21.02,2.69,31.56,.34,31.19,.12,62.39,.12,93.59,0,1.45,0,2.9,0,4.39h63.63c.06-.9,.13-1.5,.13-2.11-.02-39.68,.12-79.37-.15-119.05-.09-13.33-1.53-26.61-5.11-39.55-6.22-22.54-19.48-38.41-42.54-44.93-11.89-3.36-24.1-4.22-36.31-3.08-19.46,1.82-35.85,9.88-48.04,25.56-1.55,2-2.88,4.18-4.31,6.27l-.79-.18v-27h-60.78Zm-103.45,0v204.51h63.13V102.1H5.38Zm31.33-28.02c20.37,.03,37.02-16.57,37.16-37.05C74.01,16.94,57.26,.08,37.09,0,16.84-.08,.08,16.48,0,36.65c-.08,20.52,16.48,37.41,36.7,37.44Z"/><path class="d" d="M108.83,102.11h60.78v27l.79,.18c1.43-2.1,2.75-4.28,4.31-6.27,12.19-15.69,28.58-23.75,48.04-25.56,12.22-1.14,24.43-.28,36.31,3.08,23.06,6.52,36.32,22.39,42.54,44.93,3.57,12.95,5.01,26.23,5.11,39.55,.27,39.68,.13,79.37,.15,119.05,0,.61-.07,1.21-.13,2.11h-63.63c0-1.49,0-2.94,0-4.39,0-31.2,.21-62.4-.12-93.59-.11-10.54-.71-21.24-2.69-31.56-3.56-18.6-17.03-25.25-34.91-23.65-22.63,2.03-29.38,16.83-31.68,32.78-1.08,7.5-1.41,15.15-1.44,22.74-.15,31.2-.06,62.39-.06,93.59v4.62h-63.38V102.11Z"/><path class="d" d="M5.38,102.1h63.13v204.51H5.38V102.1Z"/><path class="d" d="M36.7,74.08C16.48,74.05-.08,57.16,0,36.65,.08,16.48,16.84-.08,37.09,0c20.17,.08,36.92,16.94,36.78,37.03-.14,20.48-16.8,37.08-37.16,37.05Z"/></g></g></g></svg>